<svg id="Layer_1" data-name="Layer 1" xmlns="http://www.w3.org/2000/svg" viewBox="0 0 263.83 176.61"><defs><style>.cls-1{fill:#7a7c81;}.cls-2{fill:none;}.cls-3{fill:#a2d9f1;}.cls-4{fill:#7fcced;}.cls-5{fill:#92d3ef;}.cls-6{fill:#54c0e8;}.cls-7{fill:#d4d5d7;}.cls-8{fill:#b9bbbd;}</style></defs><title>logo</title><path class="cls-1" d="M321,381.35l-1-7.41-2.56,7.29h-.7l-2.58-7.31-1,7.43h-.82l1.3-8.44h.93l2.56,7.17,2.55-7.17h.88l1.31,8.44Z" transform="translate(-292.03 -204.86)"/><path class="cls-1" d="M331.81,378.88h-4.32l-1,2.47h-.86l3.56-8.44h.94l3.57,8.44h-.87Zm-.3-.71-1.87-4.55-1.86,4.55Z" transform="translate(-292.03 -204.86)"/><path class="cls-1" d="M345.15,372.91v8.44h-.78l-5.55-7.16v7.16H338v-8.44h.77l5.55,7.25v-7.25Z" transform="translate(-292.03 -204.86)"/><path class="cls-1" d="M355.67,378.88h-4.32l-1,2.47h-.86l3.56-8.44H354l3.57,8.44h-.87Zm-.29-.71-1.88-4.55-1.85,4.55Z" transform="translate(-292.03 -204.86)"/><path class="cls-1" d="M368.58,377.07v3.3a4.13,4.13,0,0,1-3,1.1,4.34,4.34,0,1,1,0-8.68,4.26,4.26,0,0,1,2.87,1l-.37.63a3.81,3.81,0,0,0-2.5-.88,3.62,3.62,0,1,0,0,7.24,3.82,3.82,0,0,0,2.29-.68v-2.36h-2v-.64Z" transform="translate(-292.03 -204.86)"/><path class="cls-1" d="M377.94,380.65v.7H373.6v-8.44h4.09v.7h-3.27v3.17h3.12v.7h-3.12v3.17Z" transform="translate(-292.03 -204.86)"/><path class="cls-1" d="M390.93,381.35l-1-7.41-2.57,7.29h-.7l-2.58-7.31-1,7.43h-.82l1.29-8.44h.93l2.56,7.17,2.56-7.17h.88l1.31,8.44Z" transform="translate(-292.03 -204.86)"/><path class="cls-1" d="M401,380.65v.7h-4.35v-8.44h4.1v.7h-3.28v3.17h3.12v.7h-3.12v3.17Z" transform="translate(-292.03 -204.86)"/><path class="cls-1" d="M413,372.91v8.44h-.77l-5.55-7.16v7.16h-.8v-8.44h.77l5.55,7.25v-7.25Z" transform="translate(-292.03 -204.86)"/><path class="cls-1" d="M424,373.61h-2.89v7.74h-.82v-7.74h-2.87v-.7H424Z" transform="translate(-292.03 -204.86)"/><path class="cls-1" d="M437.84,381.47a4.34,4.34,0,1,1,0-8.68,4.18,4.18,0,0,1,2.78,1l-.37.63a3.72,3.72,0,0,0-2.41-.88,3.62,3.62,0,1,0,0,7.24,3.62,3.62,0,0,0,2.56-1l.37.61A4,4,0,0,1,437.84,381.47Z" transform="translate(-292.03 -204.86)"/><path class="cls-1" d="M453.41,377.1a4.41,4.41,0,1,1-4.4-4.31A4.28,4.28,0,0,1,453.41,377.1Zm-.83,0a3.57,3.57,0,1,0-7.14,0,3.57,3.57,0,1,0,7.14,0Z" transform="translate(-292.03 -204.86)"/><path class="cls-1" d="M465.4,372.91v8.44h-.77l-5.55-7.16v7.16h-.8v-8.44h.77l5.56,7.25v-7.25Z" transform="translate(-292.03 -204.86)"/><path class="cls-1" d="M475,379.26a2.19,2.19,0,0,1-2.41,2.21,2.93,2.93,0,0,1-2.29-1.05l.43-.57a2.48,2.48,0,0,0,1.86.92,1.46,1.46,0,0,0,1.58-1.51c0-2.17-3.65-1.83-3.65-4.39a2.11,2.11,0,0,1,2.3-2.08,3.15,3.15,0,0,1,2.11.84l-.36.59a2.55,2.55,0,0,0-1.72-.73,1.37,1.37,0,0,0-1.49,1.36C471.32,376.85,475,376.48,475,379.26Z" transform="translate(-292.03 -204.86)"/><path class="cls-1" d="M486.47,372.91v5.15a3.33,3.33,0,1,1-6.66,0v-5.15h.8v5.15a2.38,2.38,0,0,0,2.54,2.69c1.51,0,2.5-.88,2.5-2.69v-5.15Z" transform="translate(-292.03 -204.86)"/><path class="cls-1" d="M496.5,380.65v.7h-4.66v-8.44h.82v7.74Z" transform="translate(-292.03 -204.86)"/><path class="cls-1" d="M505.35,373.61h-2.88v7.74h-.82v-7.74h-2.88v-.7h6.58Z" transform="translate(-292.03 -204.86)"/><path class="cls-1" d="M510.58,372.91v8.44h-.82v-8.44Z" transform="translate(-292.03 -204.86)"/><path class="cls-1" d="M523.18,372.91v8.44h-.77l-5.55-7.16v7.16h-.8v-8.44h.77l5.56,7.25v-7.25Z" transform="translate(-292.03 -204.86)"/><path class="cls-1" d="M535.54,377.07v3.3a4.12,4.12,0,0,1-3,1.1,4.34,4.34,0,1,1,0-8.68,4.23,4.23,0,0,1,2.86,1l-.37.63a3.76,3.76,0,0,0-2.49-.88,3.62,3.62,0,1,0,0,7.24,3.84,3.84,0,0,0,2.29-.68v-2.36h-2v-.64Z" transform="translate(-292.03 -204.86)"/><path class="cls-1" d="M407,322.47h0Z" transform="translate(-292.03 -204.86)"/><path class="cls-1" d="M405.68,322.47h0Z" transform="translate(-292.03 -204.86)"/><path class="cls-1" d="M407.11,322.47h0Z" transform="translate(-292.03 -204.86)"/><path class="cls-1" d="M406.36,322.48h0Z" transform="translate(-292.03 -204.86)"/><path class="cls-2" d="M436.08,221.28a8.54,8.54,0,0,0-10.9,4.8l-10.33,26.75,9,23.38,17-44A8.54,8.54,0,0,0,436.08,221.28Z" transform="translate(-292.03 -204.86)"/><path class="cls-2" d="M395.67,247.16a24.09,24.09,0,0,1-15.7,6.09l8.87,23,9-23.38Z" transform="translate(-292.03 -204.86)"/><path class="cls-2" d="M414.21,295.17l-7.85-20.33-7.85,20.33a8.54,8.54,0,0,0,1.93,9,8.68,8.68,0,0,0,5.63,2.45h.58a8.7,8.7,0,0,0,5.63-2.45A8.54,8.54,0,0,0,414.21,295.17Z" transform="translate(-292.03 -204.86)"/><path class="cls-2" d="M379.62,237.41a8.35,8.35,0,0,0,4-15.67l-.26-.12-.35-.17a8.57,8.57,0,0,0-4.75-.62h0a7.78,7.78,0,0,0-1.62.44,8.54,8.54,0,0,0-5.34,8.29,2.35,2.35,0,0,1,0,.26l0,.21A8.35,8.35,0,0,0,379.62,237.41Z" transform="translate(-292.03 -204.86)"/><path class="cls-2" d="M471.24,221.28a8.53,8.53,0,0,0-10.89,4.8l-26.67,69.09a8.42,8.42,0,1,0,15.7,6.1l26.67-69.09A8.53,8.53,0,0,0,471.24,221.28Z" transform="translate(-292.03 -204.86)"/><path class="cls-1" d="M406.65,306.61h0Z" transform="translate(-292.03 -204.86)"/><path class="cls-1" d="M403.31,306.07a8.06,8.06,0,0,0,2.76.54,8.68,8.68,0,0,1-5.63-2.45A8.07,8.07,0,0,0,403.31,306.07Z" transform="translate(-292.03 -204.86)"/><path class="cls-1" d="M381.24,204.92l.55,0Z" transform="translate(-292.03 -204.86)"/><path class="cls-1" d="M371.34,230l0-.21Z" transform="translate(-292.03 -204.86)"/><path class="cls-1" d="M383.37,221.62l.26.12Z" transform="translate(-292.03 -204.86)"/><path class="cls-1" d="M383,221.45a8.24,8.24,0,0,0-3.4-.74,8.58,8.58,0,0,0-1.35.12A8.57,8.57,0,0,1,383,221.45Z" transform="translate(-292.03 -204.86)"/><path class="cls-1" d="M388.14,206.41l.73.29Z" transform="translate(-292.03 -204.86)"/><path class="cls-1" d="M383.72,205.22l.34.06Z" transform="translate(-292.03 -204.86)"/><path class="cls-1" d="M389.26,315.42l-.59-.6Z" transform="translate(-292.03 -204.86)"/><path class="cls-1" d="M382.49,205l.44.05Z" transform="translate(-292.03 -204.86)"/><path class="cls-1" d="M384.91,205.45l.28.06Z" transform="translate(-292.03 -204.86)"/><path class="cls-1" d="M387.11,206.05l.47.16Z" transform="translate(-292.03 -204.86)"/><path class="cls-1" d="M386,205.73l.32.09Z" transform="translate(-292.03 -204.86)"/><path class="cls-1" d="M389.89,316l-.21-.2Z" transform="translate(-292.03 -204.86)"/><path class="cls-1" d="M355.45,230.22c0-.31,0-.61,0-.92C355.43,229.6,355.44,229.91,355.45,230.22Z" transform="translate(-292.03 -204.86)"/><path class="cls-3" d="M406.36,274.84l7.85,20.33a8.54,8.54,0,0,1-1.93,9,8.25,8.25,0,0,0,1.93-2.89l9.67-25.06-9-23.38Z" transform="translate(-292.03 -204.86)"/><path class="cls-3" d="M403.82,229.06a24.12,24.12,0,0,1-8.15,18.1l2.19,5.67,8.5-22-4-10.48a24.23,24.23,0,0,0-13.2-13.54A24.21,24.21,0,0,1,403.82,229.06Z" transform="translate(-292.03 -204.86)"/><path class="cls-1" d="M376.64,221.28a7.78,7.78,0,0,1,1.62-.44,8.34,8.34,0,0,0-7,8.22c0,.17,0,.34,0,.51A8.54,8.54,0,0,1,376.64,221.28Z" transform="translate(-292.03 -204.86)"/><path class="cls-1" d="M378.8,204.88h0Z" transform="translate(-292.03 -204.86)"/><path class="cls-1" d="M355.43,228.65c0-.12,0-.23,0-.35C355.44,228.42,355.44,228.53,355.43,228.65Z" transform="translate(-292.03 -204.86)"/><path class="cls-1" d="M377.7,205l.46,0Z" transform="translate(-292.03 -204.86)"/><path class="cls-1" d="M380,204.87l.64,0Z" transform="translate(-292.03 -204.86)"/><path class="cls-3" d="M383.73,289.43l5.11-13.22-8.87-23h-.35a24.2,24.2,0,0,1-24.16-22.91,24.07,24.07,0,0,0,1.6,7.56L383.73,307a24,24,0,0,0,4.92,7.8A24.36,24.36,0,0,1,383.73,289.43Z" transform="translate(-292.03 -204.86)"/><path class="cls-1" d="M415.14,320.85a24.21,24.21,0,0,0,7.69-4.82,24.57,24.57,0,0,1-15.72,6.44A24.24,24.24,0,0,0,415.14,320.85Z" transform="translate(-292.03 -204.86)"/><path class="cls-1" d="M423.46,315.42l-.42.41Z" transform="translate(-292.03 -204.86)"/><path class="cls-1" d="M376.68,205.05l.21,0Z" transform="translate(-292.03 -204.86)"/><path class="cls-3" d="M425.18,226.08a8.42,8.42,0,0,1,15.7,6.1l-17,44,.06.16,21.63-56a24,24,0,0,1,5-7.92,24,24,0,0,0-8.8-5.92,24.35,24.35,0,0,0-31.41,13.84l-4,10.48,8.49,22Z" transform="translate(-292.03 -204.86)"/><path class="cls-1" d="M423,315.83l-.21.2Z" transform="translate(-292.03 -204.86)"/><path class="cls-1" d="M389.68,315.83c-.15-.13-.28-.27-.42-.41C389.4,315.56,389.53,315.7,389.68,315.83Z" transform="translate(-292.03 -204.86)"/><path class="cls-1" d="M409.4,306.07a8.11,8.11,0,0,0,2.88-1.91,8.7,8.7,0,0,1-5.63,2.45A8,8,0,0,0,409.4,306.07Z" transform="translate(-292.03 -204.86)"/><path class="cls-3" d="M398.51,295.17l7.85-20.33-8.5-22-9,23.38,9.67,25.06a8,8,0,0,0,1.93,2.89A8.54,8.54,0,0,1,398.51,295.17Z" transform="translate(-292.03 -204.86)"/><path class="cls-1" d="M397.58,320.85a24.19,24.19,0,0,0,8,1.62A24.55,24.55,0,0,1,389.89,316,24.21,24.21,0,0,0,397.58,320.85Z" transform="translate(-292.03 -204.86)"/><path class="cls-1" d="M406.36,306.61h0Z" transform="translate(-292.03 -204.86)"/><path class="cls-1" d="M423.46,315.42c.16-.16.33-.32.48-.49h0Z" transform="translate(-292.03 -204.86)"/><path class="cls-1" d="M388.67,314.82l0,0Z" transform="translate(-292.03 -204.86)"/><path class="cls-4" d="M418.9,289.43l5-13.06-.06-.16-9.67,25.06a8.25,8.25,0,0,1-1.93,2.89,8.11,8.11,0,0,1-2.88,1.91,8,8,0,0,1-2.75.54h-.58a8.56,8.56,0,0,1-7.56-5.34l-9.67-25.06-5.11,13.22a24.36,24.36,0,0,0,4.92,25.37l0,0,.59.6c.14.14.27.28.42.41l.21.2a24.55,24.55,0,0,0,15.72,6.44h1.5A24.57,24.57,0,0,0,422.83,316l.21-.2.42-.41.48-.49A24.35,24.35,0,0,1,418.9,289.43Z" transform="translate(-292.03 -204.86)"/><polygon class="cls-4" points="114.33 69.97 122.83 47.96 114.33 25.95 105.84 47.96 114.33 69.97"/><path class="cls-5" d="M477,206.5a24.36,24.36,0,0,0-26.37,5.92,24.34,24.34,0,0,1,5.05,25.49L429,307a24.12,24.12,0,0,1-4.92,7.8l0,0-.11.11A24.24,24.24,0,0,0,464.16,307l26.67-69.09A24.34,24.34,0,0,0,477,206.5Zm-.93,25.68-26.67,69.09a8.42,8.42,0,1,1-15.7-6.1l26.67-69.09a8.42,8.42,0,0,1,15.7,6.1Z" transform="translate(-292.03 -204.86)"/><path class="cls-1" d="M424.07,314.8l0,0Z" transform="translate(-292.03 -204.86)"/><path class="cls-4" d="M423.94,276.37,429,289.43a24.36,24.36,0,0,1-4.92,25.37A24.12,24.12,0,0,0,429,307l26.67-69.09a24.34,24.34,0,0,0-5.05-25.49,24,24,0,0,0-5,7.92Z" transform="translate(-292.03 -204.86)"/><path class="cls-1" d="M423.94,314.93h0l.11-.11Z" transform="translate(-292.03 -204.86)"/><path class="cls-6" d="M429,289.43l-5.05-13.06-5,13.06a24.35,24.35,0,0,0,5,25.5l.11-.11,0,0A24.36,24.36,0,0,0,429,289.43Z" transform="translate(-292.03 -204.86)"/><path class="cls-1" d="M355.42,229.06c0,.08,0,.16,0,.24v-.65C355.43,228.78,355.42,228.92,355.42,229.06Z" transform="translate(-292.03 -204.86)"/><path class="cls-1" d="M355.46,230.35s0-.09,0-.13A.57.57,0,0,0,355.46,230.35Z" transform="translate(-292.03 -204.86)"/><path class="cls-1" d="M371.31,229.83a2.35,2.35,0,0,0,0-.26C371.3,229.66,371.31,229.74,371.31,229.83Z" transform="translate(-292.03 -204.86)"/><path class="cls-1" d="M386.36,205.82l.75.23Z" transform="translate(-292.03 -204.86)"/><path class="cls-1" d="M388.87,206.7l.25.1Z" transform="translate(-292.03 -204.86)"/><path class="cls-1" d="M387.58,206.21l.56.2Z" transform="translate(-292.03 -204.86)"/><path class="cls-1" d="M378.26,220.84h0Z" transform="translate(-292.03 -204.86)"/><path class="cls-1" d="M370.9,206.5a24,24,0,0,1,5.78-1.45,24.19,24.19,0,0,0-21.24,23.25A24.37,24.37,0,0,1,370.9,206.5Z" transform="translate(-292.03 -204.86)"/><path class="cls-1" d="M383,221.45l.35.17Z" transform="translate(-292.03 -204.86)"/><path class="cls-7" d="M387.54,226.08a8.4,8.4,0,0,0-3.91-4.34,8.35,8.35,0,1,1-12.29,8.3,8.11,8.11,0,0,0,.5,2.14L380,253.25a24.09,24.09,0,0,0,15.7-6.09Z" transform="translate(-292.03 -204.86)"/><path class="cls-1" d="M376.89,205l.81-.07Z" transform="translate(-292.03 -204.86)"/><path class="cls-1" d="M379.62,204.86h0Z" transform="translate(-292.03 -204.86)"/><path class="cls-1" d="M380.62,204.89l.62,0Z" transform="translate(-292.03 -204.86)"/><path class="cls-1" d="M378.16,204.91l.64,0Z" transform="translate(-292.03 -204.86)"/><path class="cls-1" d="M382.93,205.09l.79.13Z" transform="translate(-292.03 -204.86)"/><path class="cls-1" d="M384.06,205.28l.85.17Z" transform="translate(-292.03 -204.86)"/><path class="cls-1" d="M385.19,205.51l.85.22Z" transform="translate(-292.03 -204.86)"/><path class="cls-1" d="M381.79,205l.7.08Z" transform="translate(-292.03 -204.86)"/><path class="cls-8" d="M379.62,253.26H380l-8.13-21.07a8.11,8.11,0,0,1-.5-2.14l0-.21c0-.09,0-.17,0-.26s0-.34,0-.51a8.34,8.34,0,0,1,7-8.22h0a8.58,8.58,0,0,1,1.35-.12,8.24,8.24,0,0,1,3.4.74l.35.17.26.12a8.4,8.4,0,0,1,3.91,4.34l8.13,21.08a24.19,24.19,0,0,0-6.55-40.36l-.25-.1-.73-.29-.56-.2-.47-.16-.75-.23-.32-.09-.85-.22-.28-.06-.85-.17-.34-.06-.79-.13-.44-.05-.7-.08-.55,0-.62,0-.64,0H378.8l-.64,0-.46,0-.81.07-.21,0a24,24,0,0,0-5.78,1.45,24.37,24.37,0,0,0-15.46,21.8c0,.12,0,.23,0,.35v.65c0,.31,0,.61,0,.92,0,0,0,.09,0,.13A24.2,24.2,0,0,0,379.62,253.26Z" transform="translate(-292.03 -204.86)"/><path class="cls-1" d="M294,358.19h-2l.11-7.42-.11-17h2l-.11,16.9Z" transform="translate(-292.03 -204.86)"/><path class="cls-1" d="M316.73,358.19h-2L303.58,342.4h-.16l0,9.67,0,6.12h-1.76l.08-5.58,0-13.35h2l11.17,15.84h.19V339.34l1.76-.11-.08,13.5Z" transform="translate(-292.03 -204.86)"/><path class="cls-1" d="M335.58,341l-3.4-.15h-2.37l-.08,11.43.08,5.89h-1.87l0-5.73,0-11.59H325.6l-3.48.15-.15-.19.15-1.57h13.5l.12.23Z" transform="translate(-292.03 -204.86)"/><path class="cls-1" d="M351.65,358.19H340.86l.08-5.73-.08-13.2h10.79l.15.23-.19,1.46-4.71-.12h-4.13l0,6.81,3.9,0,3.36-.08.12.23-.16,1.49-3.48-.08-3.78,0v3l0,4.33h3.9l5-.08.2.19Z" transform="translate(-292.03 -204.86)"/><path class="cls-1" d="M366.56,358.19H357l0-5.73,0-13.2h1.87l-.07,13,0,4.29h7.73l.15.19Z" transform="translate(-292.03 -204.86)"/><path class="cls-1" d="M380.75,358.19h-9.52l0-5.73,0-13.2h1.87l-.08,13,0,4.29h7.73l.15.19Z" transform="translate(-292.03 -204.86)"/><path class="cls-1" d="M387.33,358.19h-1.88l.08-5.73-.08-13.2h1.91l-.07,13Z" transform="translate(-292.03 -204.86)"/><path class="cls-1" d="M408.66,340.53l-.61,1.79h-.27a10.06,10.06,0,0,0-5.2-1.6q-7.41,0-7.42,8.26,0,7.8,6.77,7.8a17,17,0,0,0,4.86-.84v-2.53l0-2.56,1.76-.11v6.57a26.3,26.3,0,0,1-6.65,1,8.39,8.39,0,0,1-6.47-2.41c-1.48-1.61-2.21-3.92-2.21-6.92q0-4.78,2.52-7.35a9.55,9.55,0,0,1,7.11-2.56A13.31,13.31,0,0,1,408.66,340.53Z" transform="translate(-292.03 -204.86)"/><path class="cls-1" d="M426,358.19H415.2l.08-5.73-.08-13.2H426l.15.23L426,341l-4.7-.12h-4.13l0,6.81,3.9,0,3.36-.08.12.23-.15,1.49-3.49-.08-3.78,0v3l0,4.33H421l5-.08.19.19Z" transform="translate(-292.03 -204.86)"/><path class="cls-1" d="M446.49,358.19h-2L433.33,342.4h-.15l0,9.67,0,6.12h-1.76l.07-5.58,0-13.35h2l11.17,15.84h.19V339.34l1.76-.11-.07,13.5Z" transform="translate(-292.03 -204.86)"/><path class="cls-1" d="M465.34,341l-3.4-.15h-2.37l-.08,11.43.08,5.89h-1.88l0-5.73,0-11.59h-2.33l-3.48.15-.15-.19.15-1.57h13.5l.11.23Z" transform="translate(-292.03 -204.86)"/><path class="cls-1" d="M495.86,358.19l-5.36-15.41h-.19l-5.73,15.41h-2l-8.26-24.43h2l.45,2,6.81,20h.19L489.62,340l-2.18-6.27h2.07l.53,2.18,6.81,19.84h.23l7.46-19.92.53-2.1H507l-9.14,24.43Z" transform="translate(-292.03 -204.86)"/><path class="cls-1" d="M522.66,358.19l-.42-1.72-1.41-3.78h-9l-1.49,3.71-.49,1.79H507.9l7.61-18.93h2.14l7,18.93Zm-6-16.9h-.19l-4,9.83,3.83,0,4,0Z" transform="translate(-292.03 -204.86)"/><path class="cls-1" d="M533.79,358.19h-1.87l.08-5.58,0-1.26-6.39-12.09h2.1l.39,1,4.74,8.91H533l5.2-8.83.46-1h2.07l-6.93,12.05,0,1.3Z" transform="translate(-292.03 -204.86)"/><path class="cls-1" d="M555.25,340l-.31,1.83-.34.08a6.76,6.76,0,0,0-3.83-1.3,4.29,4.29,0,0,0-3,1.05A3.17,3.17,0,0,0,546.6,344a2.41,2.41,0,0,0,1,2,15.11,15.11,0,0,0,3.08,1.65c1.14.53,2,1,2.71,1.39a6,6,0,0,1,1.72,1.57,3.86,3.86,0,0,1,.73,2.39,4.66,4.66,0,0,1-.79,2.62,5.5,5.5,0,0,1-2.23,1.93,7.37,7.37,0,0,1-3.37.73,10.7,10.7,0,0,1-5.2-1.3l.19-1.95.27-.12a6.77,6.77,0,0,0,2.35,1.4,7.79,7.79,0,0,0,2.58.48,4.52,4.52,0,0,0,3.12-1.06,3.18,3.18,0,0,0,1.2-2.46,2.54,2.54,0,0,0-1-2.13,17.39,17.39,0,0,0-3.15-1.77c-1.1-.51-2-1-2.66-1.36a5.66,5.66,0,0,1-1.72-1.55,3.84,3.84,0,0,1-.71-2.33,4.42,4.42,0,0,1,.78-2.56,5.36,5.36,0,0,1,2.2-1.82,7.49,7.49,0,0,1,3.25-.67A10.8,10.8,0,0,1,555.25,340Z" transform="translate(-292.03 -204.86)"/></svg>