<svg xmlns="http://www.w3.org/2000/svg" width="137.043" height="117.613" viewBox="0 0 137.043 117.613">
  <g id="Group_1" data-name="Group 1" transform="translate(-535.42 -499)">
    <path id="Path_25" data-name="Path 25" d="M436.08,221.28a8.54,8.54,0,0,0-10.9,4.8l-10.33,26.75,9,23.38,17-44A8.54,8.54,0,0,0,436.08,221.28Z" transform="translate(180 294.14)" fill="none"/>
    <path id="Path_26" data-name="Path 26" d="M395.67,247.16a24.09,24.09,0,0,1-15.7,6.09l8.87,23,9-23.38Z" transform="translate(180 294.14)" fill="none"/>
    <path id="Path_27" data-name="Path 27" d="M414.21,295.17l-7.85-20.33-7.85,20.33a8.54,8.54,0,0,0,1.93,9,8.68,8.68,0,0,0,5.63,2.45h.58a8.7,8.7,0,0,0,5.63-2.45,8.54,8.54,0,0,0,1.93-9Z" transform="translate(180 294.14)" fill="none"/>
    <path id="Path_28" data-name="Path 28" d="M379.62,237.41a8.35,8.35,0,0,0,4-15.67l-.26-.12-.35-.17a8.57,8.57,0,0,0-4.75-.62h0a7.779,7.779,0,0,0-1.62.44,8.54,8.54,0,0,0-5.34,8.29,2.353,2.353,0,0,1,0,.26v.21a8.35,8.35,0,0,0,8.32,7.38Z" transform="translate(180 294.14)" fill="none"/>
    <path id="Path_29" data-name="Path 29" d="M471.24,221.28a8.53,8.53,0,0,0-10.89,4.8l-26.67,69.09a8.422,8.422,0,0,0,15.7,6.1l26.67-69.09a8.53,8.53,0,0,0-4.81-10.9Z" transform="translate(180 294.14)" fill="none"/>
    <path id="Path_32" data-name="Path 32" d="M381.24,204.92h0Z" transform="translate(180 294.14)" fill="#7a7c81"/>
    <path id="Path_33" data-name="Path 33" d="M371.34,230v0Z" transform="translate(180 294.14)" fill="#7a7c81"/>
    <path id="Path_34" data-name="Path 34" d="M383.37,221.62l.26.12Z" transform="translate(180 294.14)" fill="#7a7c81"/>
    <path id="Path_35" data-name="Path 35" d="M383,221.45a8.24,8.24,0,0,0-3.4-.74,8.579,8.579,0,0,0-1.35.12A8.57,8.57,0,0,1,383,221.45Z" transform="translate(180 294.14)" fill="#7a7c81"/>
    <path id="Path_36" data-name="Path 36" d="M388.14,206.41l.73.29Z" transform="translate(180 294.14)" fill="#7a7c81"/>
    <path id="Path_37" data-name="Path 37" d="M383.72,205.22l.34.06Z" transform="translate(180 294.14)" fill="#7a7c81"/>
    <path id="Path_39" data-name="Path 39" d="M382.49,205l.44.05Z" transform="translate(180 294.14)" fill="#7a7c81"/>
    <path id="Path_40" data-name="Path 40" d="M384.91,205.45l.28.06Z" transform="translate(180 294.14)" fill="#7a7c81"/>
    <path id="Path_41" data-name="Path 41" d="M387.11,206.05l.47.16Z" transform="translate(180 294.14)" fill="#7a7c81"/>
    <path id="Path_42" data-name="Path 42" d="M386,205.73l.32.09Z" transform="translate(180 294.14)" fill="#7a7c81"/>
    <path id="Path_44" data-name="Path 44" d="M355.45,230.22v-.92C355.43,229.6,355.44,229.91,355.45,230.22Z" transform="translate(180 294.14)" fill="#7a7c81"/>
    <path id="Path_45" data-name="Path 45" d="M406.36,274.84l7.85,20.33a8.54,8.54,0,0,1-1.93,9,8.249,8.249,0,0,0,1.93-2.89l9.67-25.06-9-23.38Z" transform="translate(180 294.14)" fill="#a2d9f1"/>
    <path id="Path_46" data-name="Path 46" d="M403.82,229.06a24.12,24.12,0,0,1-8.15,18.1l2.19,5.67,8.5-22-4-10.48a24.23,24.23,0,0,0-13.2-13.54A24.21,24.21,0,0,1,403.82,229.06Z" transform="translate(180 294.14)" fill="#a2d9f1"/>
    <path id="Path_47" data-name="Path 47" d="M376.64,221.28a7.781,7.781,0,0,1,1.62-.44,8.34,8.34,0,0,0-7,8.22q0,.255,0,.51A8.54,8.54,0,0,1,376.64,221.28Z" transform="translate(180 294.14)" fill="#7a7c81"/>
    <path id="Path_48" data-name="Path 48" d="M378.8,204.88Z" transform="translate(180 294.14)" fill="#7a7c81"/>
    <path id="Path_49" data-name="Path 49" d="M355.43,228.65v-.35A2.043,2.043,0,0,1,355.43,228.65Z" transform="translate(180 294.14)" fill="#7a7c81"/>
    <path id="Path_50" data-name="Path 50" d="M377.7,205h0Z" transform="translate(180 294.14)" fill="#7a7c81"/>
    <path id="Path_51" data-name="Path 51" d="M380,204.87h0Z" transform="translate(180 294.14)" fill="#7a7c81"/>
    <path id="Path_52" data-name="Path 52" d="M383.73,289.43l5.11-13.22-8.87-23h-.35a24.2,24.2,0,0,1-24.16-22.9,24.07,24.07,0,0,0,1.6,7.554L383.73,307a24,24,0,0,0,4.92,7.8,24.36,24.36,0,0,1-4.92-25.37Z" transform="translate(180 294.14)" fill="#a2d9f1"/>
    <path id="Path_55" data-name="Path 55" d="M376.68,205.05h0Z" transform="translate(180 294.14)" fill="#7a7c81"/>
    <path id="Path_56" data-name="Path 56" d="M425.18,226.08a8.422,8.422,0,0,1,15.7,6.1l-17,44,.06.16,21.63-56a24,24,0,0,1,5-7.92,24,24,0,0,0-8.8-5.92,24.35,24.35,0,0,0-31.41,13.84l-4,10.48,8.49,22Z" transform="translate(180 294.14)" fill="#a2d9f1"/>
    <path id="Path_60" data-name="Path 60" d="M398.51,295.17l7.85-20.33-8.5-22-9,23.38,9.67,25.06a8,8,0,0,0,1.93,2.89A8.54,8.54,0,0,1,398.51,295.17Z" transform="translate(180 294.14)" fill="#a2d9f1"/>
    <path id="Path_65" data-name="Path 65" d="M418.9,289.43l5-13.06-.06-.16-9.67,25.06a8.25,8.25,0,0,1-1.93,2.89,8.109,8.109,0,0,1-2.88,1.91,8,8,0,0,1-2.75.54h-.58a8.56,8.56,0,0,1-7.56-5.34l-9.67-25.06-5.11,13.22a24.36,24.36,0,0,0,4.92,25.37h0l.59.6c.14.14.27.28.42.41l.21.2a24.55,24.55,0,0,0,15.72,6.44h1.5A24.57,24.57,0,0,0,422.83,316l.21-.2.42-.41.48-.49a24.35,24.35,0,0,1-5.04-25.47Z" transform="translate(180 294.14)" fill="#7fcced"/>
    <path id="Path_66" data-name="Path 66" d="M114.33,69.97l8.5-22.01-8.5-22.01-8.49,22.01Z" transform="translate(472.03 499)" fill="#7fcced"/>
    <path id="Path_67" data-name="Path 67" d="M477,206.5a24.36,24.36,0,0,0-26.37,5.92,24.34,24.34,0,0,1,5.05,25.49L429,307a24.121,24.121,0,0,1-4.92,7.8h0l-.11.11A24.24,24.24,0,0,0,464.16,307l26.67-69.09A24.34,24.34,0,0,0,477,206.5Zm-.93,25.68L449.4,301.27a8.422,8.422,0,1,1-15.7-6.1l26.67-69.09a8.422,8.422,0,1,1,15.7,6.1Z" transform="translate(180 294.14)" fill="#92d3ef"/>
    <path id="Path_69" data-name="Path 69" d="M423.94,276.37,429,289.43a24.36,24.36,0,0,1-4.92,25.37A24.121,24.121,0,0,0,429,307l26.67-69.09a24.34,24.34,0,0,0-5.05-25.49,24,24,0,0,0-5,7.92Z" transform="translate(180 294.14)" fill="#7fcced"/>
    <path id="Path_71" data-name="Path 71" d="M429,289.43l-5.05-13.06-5,13.06a24.35,24.35,0,0,0,5,25.5l.11-.11h0A24.36,24.36,0,0,0,429,289.43Z" transform="translate(180 294.14)" fill="#54c0e8"/>
    <path id="Path_72" data-name="Path 72" d="M355.42,229.06v-.41C355.43,228.78,355.42,228.92,355.42,229.06Z" transform="translate(180 294.14)" fill="#7a7c81"/>
    <path id="Path_73" data-name="Path 73" d="M355.46,230.35v-.13a.571.571,0,0,0,0,.13Z" transform="translate(180 294.14)" fill="#7a7c81"/>
    <path id="Path_74" data-name="Path 74" d="M371.31,229.83a2.361,2.361,0,0,0,0-.26A2.26,2.26,0,0,0,371.31,229.83Z" transform="translate(180 294.14)" fill="#7a7c81"/>
    <path id="Path_75" data-name="Path 75" d="M386.36,205.82l.75.23Z" transform="translate(180 294.14)" fill="#7a7c81"/>
    <path id="Path_76" data-name="Path 76" d="M388.87,206.7l.25.1Z" transform="translate(180 294.14)" fill="#7a7c81"/>
    <path id="Path_77" data-name="Path 77" d="M387.58,206.21l.56.2Z" transform="translate(180 294.14)" fill="#7a7c81"/>
    <path id="Path_78" data-name="Path 78" d="M378.26,220.84Z" transform="translate(180 294.14)" fill="#7a7c81"/>
    <path id="Path_79" data-name="Path 79" d="M370.9,206.5a24,24,0,0,1,5.78-1.45,24.19,24.19,0,0,0-21.24,23.25,24.37,24.37,0,0,1,15.46-21.8Z" transform="translate(180 294.14)" fill="#7a7c81"/>
    <path id="Path_80" data-name="Path 80" d="M383,221.45l.35.17Z" transform="translate(180 294.14)" fill="#7a7c81"/>
    <path id="Path_81" data-name="Path 81" d="M387.54,226.08a8.4,8.4,0,0,0-3.91-4.34,8.35,8.35,0,1,1-12.29,8.3,8.112,8.112,0,0,0,.5,2.14L380,253.25a24.09,24.09,0,0,0,15.7-6.09Z" transform="translate(180 294.14)" fill="#d4d5d7"/>
    <path id="Path_82" data-name="Path 82" d="M376.89,205l.81-.07Z" transform="translate(180 294.14)" fill="#7a7c81"/>
    <path id="Path_83" data-name="Path 83" d="M379.62,204.86Z" transform="translate(180 294.14)" fill="#7a7c81"/>
    <path id="Path_84" data-name="Path 84" d="M380.62,204.89h0Z" transform="translate(180 294.14)" fill="#7a7c81"/>
    <path id="Path_85" data-name="Path 85" d="M378.16,204.91h0Z" transform="translate(180 294.14)" fill="#7a7c81"/>
    <path id="Path_86" data-name="Path 86" d="M382.93,205.09l.79.13Z" transform="translate(180 294.14)" fill="#7a7c81"/>
    <path id="Path_87" data-name="Path 87" d="M384.06,205.28l.85.17Z" transform="translate(180 294.14)" fill="#7a7c81"/>
    <path id="Path_88" data-name="Path 88" d="M385.19,205.51l.85.22Z" transform="translate(180 294.14)" fill="#7a7c81"/>
    <path id="Path_89" data-name="Path 89" d="M381.79,205l.7.08Z" transform="translate(180 294.14)" fill="#7a7c81"/>
    <path id="Path_90" data-name="Path 90" d="M379.62,253.26H380l-8.13-21.07a8.109,8.109,0,0,1-.5-2.14v-.98a8.34,8.34,0,0,1,7-8.22h0a8.58,8.58,0,0,1,1.35-.12,8.24,8.24,0,0,1,3.4.74l.35.17.26.12a8.4,8.4,0,0,1,3.91,4.34l8.13,21.08a24.19,24.19,0,0,0-6.55-40.36l-.25-.1-.73-.29-.56-.2-.47-.16-.75-.23-.32-.09-.85-.22-.28-.06-.85-.17-.34-.06-.79-.13-.44-.05-.7-.08H377.7l-.81.07h-.21a24,24,0,0,0-5.78,1.45,24.37,24.37,0,0,0-15.46,21.8v2.05A24.2,24.2,0,0,0,379.62,253.26Z" transform="translate(180 294.14)" fill="#b9bbbd"/>
  </g>
</svg>
